<?xml version="1.0" encoding="utf-8"?>
<!-- Generator: Adobe Illustrator 19.1.0, SVG Export Plug-In . SVG Version: 6.00 Build 0)  -->
<svg version="1.1" id="Layer_1" xmlns="http://www.w3.org/2000/svg" xmlns:xlink="http://www.w3.org/1999/xlink" x="0px" y="0px"
	 viewBox="0 0 1000 1000" style="enable-background:new 0 0 1000 1000;" xml:space="preserve">
<style type="text/css">
	.st0{fill:#FFFFFF;}
	.st1{fill:#D92738;}
	.st2{fill:#333333;}
</style>
<circle class="st0" cx="500" cy="500" r="497.5"/>
<path class="st1" d="M613.7,60.9c-4.1,14.4-5.7,32.4-5.7,53.9v38.4c0,34.2-4.4,60.5-12.8,78.8c-15.3,33.1-45.2,51.7-89.3,55.8
	c44.1,4.1,74,22.7,89.3,55.8c8.4,18.3,12.8,44.5,12.8,78.8v38.4c0,28.3,2.9,50.5,10,66.4c13,29.2,38,45.4,74,48.6v39.1
	c-55-4.8-93.9-19.7-112.5-44.8c-18.6-25.1-27.5-59.1-27.5-102v-55.8c0-26-3.8-46-11.5-59.9c-13.9-25.1-40.5-40.1-81.5-44.8v-19.7
	v-19.7c41-4.8,67.5-19.7,81.5-44.8c7.8-13.9,11.5-33.9,11.5-59.9v-55.8c0-21.2,2.2-40.3,6.7-57.1c-19.2-2.5-38.8-3.8-58.7-3.8
	c-250.4,0-453.4,203-453.4,453.4s203,453.4,453.4,453.4s453.5-203,453.5-453.4C953.6,288.8,809.3,111.3,613.7,60.9z M638.7,300.2
	c-13.1,0-23.7-10.6-23.7-23.7c0-13.1,10.6-23.7,23.7-23.7c13.1,0,23.7,10.6,23.7,23.7C662.4,289.6,651.8,300.2,638.7,300.2z
	 M888,523.2c-38,4.8-67,19.7-81,44.8c-7.8,13.9-11,33.9-11,59.9v55.8c0,42.9-8.9,76.9-27.5,102c-18.6,25.1-55.5,40-112.5,44.8v-39.1
	c36-3.2,61.5-19.4,74.5-48.6c7.1-16,10.5-38.1,10.5-66.4v-38.4c0-34.2,4-60.5,12.5-78.8c15.3-33.1,44.9-51.7,89-55.8
	c-44.1-4.1-73.6-22.7-88.9-55.8c-8.4-18.3-12.5-44.5-12.5-78.8v-38.4c0-28.3-3.4-50.5-10.5-66.4c-13-29.2-38.5-45.4-74.5-48.6v-39.1
	c57,4.8,93.9,19.7,112.5,44.8c18.6,25.1,27.5,59.1,27.5,102v55.8c0,26,3.3,46,11,59.9c13.9,25.1,43,40.1,81,44.8v19.7V523.2z"/>
<path class="st0" d="M552,163.3c0,26-3.8,46-11.5,59.9c-13.9,25.1-40.5,40.1-81.5,44.8v19.7v19.7c41,4.8,67.5,19.7,81.5,44.8
	c7.8,13.9,11.5,33.9,11.5,59.9V468c0,42.9,8.9,76.9,27.5,102c18.6,25.1,57.5,40,112.5,44.8v-39.1c-36-3.2-61-19.4-74-48.6
	c-7.1-16-10-38.1-10-66.4v-38.4c0-34.2-4.4-60.5-12.8-78.8c-15.3-33.1-45.2-51.7-89.3-55.8c44.1-4.1,74-22.7,89.3-55.8
	c8.4-18.3,12.8-44.5,12.8-78.8v-38.4c0-21.5,1.7-39.5,5.7-53.9c-17.9-4.6-36.2-8.1-54.9-10.5c-4.5,16.9-6.9,35.9-6.9,57.1V163.3z"/>
<g>
	<path class="st0" d="M221.1,465.1v38.3h-19.2v-95.9h36.2c10.9,0,19.5,2.5,25.7,7.5c6.2,5,9.3,11.9,9.3,20.8c0,5-1.3,9.2-3.9,12.8
		c-2.6,3.6-6.4,6.4-11.4,8.6c5.7,1.7,9.7,4.5,12.2,8.4c2.5,3.9,3.7,8.7,3.7,14.5v7c0,2.7,0.4,5.5,1.1,8.4c0.7,2.9,2,5.1,3.7,6.5v1.4
		h-19.8c-1.8-1.4-2.9-3.8-3.4-7c-0.5-3.3-0.8-6.4-0.8-9.4v-6.8c0-4.8-1.3-8.5-3.9-11.2c-2.6-2.7-6.3-4-11-4H221.1z M221.1,450.3
		h16.6c5.4,0,9.4-1.1,12.1-3.4c2.7-2.3,4-5.7,4-10.1c0-4.4-1.3-7.9-4-10.5c-2.7-2.6-6.6-3.9-11.8-3.9h-16.9V450.3z"/>
	<path class="st0" d="M318.3,504.8c-10.3,0-18.5-3.3-24.6-9.9c-6.1-6.6-9.2-14.9-9.2-25.1v-2.6c0-10.6,2.9-19.3,8.7-26.1
		c5.8-6.8,13.6-10.3,23.4-10.2c9.6,0,17.1,2.9,22.4,8.7c5.3,5.8,8,13.6,8,23.5v10.5h-42.5l-0.1,0.4c0.4,4.7,1.9,8.5,4.7,11.5
		c2.8,3,6.6,4.5,11.4,4.5c4.3,0,7.8-0.4,10.6-1.3c2.8-0.9,5.9-2.2,9.2-4.1l5.2,11.9c-2.9,2.4-6.7,4.4-11.4,5.9
		C329.3,504,324.1,504.8,318.3,504.8z M316.6,445.7c-3.6,0-6.4,1.4-8.4,4.1c-2.1,2.7-3.3,6.3-3.8,10.7l0.2,0.3h23.6v-1.7
		c0-4.1-1-7.3-2.9-9.8S320.5,445.7,316.6,445.7z"/>
	<path class="st0" d="M400,503.4c-0.7-1.6-1.3-3.3-1.8-5.1c-0.5-1.8-0.9-3.6-1.1-5.5c-2,3.5-4.6,6.3-7.8,8.6
		c-3.2,2.3-7.1,3.4-11.6,3.4c-7.5,0-13.2-1.9-17.3-5.8c-4-3.8-6.1-9.1-6.1-15.7c0-7,2.7-12.4,8.1-16.2c5.4-3.8,13.2-5.8,23.5-5.8
		h10.7v-5.7c0-3.4-0.9-6.1-2.7-8c-1.8-1.9-4.5-2.8-8-2.8c-3.1,0-5.5,0.8-7.2,2.3c-1.7,1.5-2.5,3.6-2.5,6.3l-18.6-0.1l-0.1-0.4
		c-0.3-6,2.3-11.2,7.8-15.6c5.5-4.4,12.8-6.6,21.8-6.6c8.5,0,15.4,2.2,20.7,6.5c5.3,4.3,8,10.5,8,18.5v29.4c0,3.3,0.3,6.5,0.8,9.4
		c0.5,2.9,1.3,5.9,2.4,8.8H400z M382.4,490.6c3.4,0,6.4-0.8,9-2.5c2.6-1.7,4.4-3.6,5.3-5.8v-10.1H386c-4.1,0-7.2,1-9.3,3.1
		s-3.2,4.5-3.2,7.4c0,2.4,0.8,4.3,2.4,5.7S379.7,490.6,382.4,490.6z"/>
	<path class="st0" d="M448.5,503.4h-19.2V400.7h19.2V503.4z"/>
	<path class="st0" d="M221.1,609.8h42.7v14.8h-61.9v-95.9h19.2V609.8z"/>
	<path class="st0" d="M294.9,536.3h-19.2v-14.4h19.2V536.3z M294.9,624.6h-19.2v-71.3h19.2V624.6z"/>
	<path class="st0" d="M317.7,624.6v-57.8h-10.6v-13.5h10.6v-7.9c0-8,2.3-14.1,6.9-18.5c4.6-4.3,11.1-6.5,19.4-6.5
		c1.6,0,3.3,0.1,5,0.4c1.7,0.2,3.5,0.6,5.6,1l-1.6,14.3c-1.1-0.2-2.1-0.3-3.1-0.5c-1-0.1-2.1-0.2-3.5-0.2c-3.1,0-5.5,0.9-7.1,2.6
		c-1.6,1.7-2.4,4.2-2.4,7.4v7.9h14.2v13.5h-14.2v57.8H317.7z"/>
	<path class="st0" d="M391.8,626c-10.3,0-18.5-3.3-24.6-9.9c-6.1-6.6-9.2-14.9-9.2-25.1v-2.6c0-10.6,2.9-19.3,8.7-26.1
		c5.8-6.8,13.6-10.3,23.4-10.2c9.6,0,17.1,2.9,22.4,8.7c5.3,5.8,8,13.6,8,23.5v10.5h-42.5l-0.1,0.4c0.4,4.7,1.9,8.5,4.7,11.5
		c2.8,3,6.6,4.5,11.4,4.5c4.3,0,7.8-0.4,10.6-1.3c2.8-0.9,5.9-2.2,9.2-4.1l5.2,11.9c-2.9,2.4-6.7,4.4-11.4,5.9
		C402.7,625.2,397.5,626,391.8,626z M390.1,566.9c-3.6,0-6.4,1.4-8.4,4.1c-2.1,2.7-3.3,6.3-3.8,10.7l0.2,0.3h23.6v-1.7
		c0-4.1-1-7.3-2.9-9.8C396.8,568.1,393.9,566.9,390.1,566.9z"/>
	<path class="st0" d="M201.9,745.9V650h32.9c11.7,0,21.4,3.7,29,11.2c7.6,7.5,11.4,17.1,11.4,28.8v15.9c0,11.8-3.8,21.4-11.4,28.8
		c-7.6,7.4-17.3,11.2-29,11.2H201.9z M221.1,664.8V731h12.7c6.9,0,12.3-2.3,16.2-7c3.9-4.6,5.9-10.7,5.9-18.2v-16
		c0-7.4-2-13.4-5.9-18.1c-3.9-4.6-9.3-7-16.2-7H221.1z"/>
	<path class="st0" d="M306.8,657.5h-19.2v-14.4h19.2V657.5z M306.8,745.9h-19.2v-71.3h19.2V745.9z"/>
	<path class="st0" d="M317.5,710.8c0-11.2,2.4-20.3,7.3-27.2c4.9-6.9,11.8-10.3,20.6-10.3c4,0,7.5,0.9,10.5,2.7
		c3,1.8,5.6,4.4,7.8,7.7l1.5-9.1h16.6v70.9c0,9.3-3,16.4-9.1,21.5c-6.1,5.1-14.5,7.6-25.4,7.6c-3.6,0-7.4-0.5-11.5-1.5
		s-7.8-2.3-11.2-4.1l3.6-14.4c2.9,1.4,5.9,2.5,9,3.2c3.1,0.7,6.4,1.1,10,1.1c5.3,0,9.1-1.1,11.6-3.3c2.5-2.2,3.7-5.6,3.7-10.3V739
		c-2.1,2.7-4.6,4.7-7.4,6.1c-2.9,1.4-6.1,2.1-9.8,2.1c-8.7,0-15.6-3.2-20.4-9.6c-4.9-6.4-7.3-14.9-7.3-25.4V710.8z M336.7,712.2
		c0,6.3,1.1,11.2,3.2,14.8c2.1,3.6,5.5,5.4,10.3,5.4c2.9,0,5.4-0.5,7.5-1.6c2-1.1,3.7-2.7,4.9-4.7v-31.1c-1.2-2.2-2.9-3.8-4.9-5
		s-4.5-1.8-7.3-1.8c-4.7,0-8.1,2.1-10.3,6.3s-3.3,9.7-3.3,16.4V712.2z"/>
	<path class="st0" d="M414.3,657.5H395v-14.4h19.2V657.5z M414.3,745.9H395v-71.3h19.2V745.9z"/>
	<path class="st0" d="M455,657.1v17.5h12v13.5h-12v36.3c0,2.8,0.6,4.7,1.7,5.9c1.1,1.2,2.7,1.8,4.6,1.8c1,0,1.9-0.1,2.6-0.2
		c0.7-0.1,1.6-0.3,2.5-0.6l1.6,13.9c-1.9,0.7-3.8,1.2-5.7,1.5c-1.8,0.3-3.8,0.5-6,0.5c-6.6,0-11.7-1.8-15.3-5.5
		c-3.6-3.6-5.4-9.4-5.4-17.3v-36.4h-10.4v-13.5h10.4v-17.5H455z"/>
	<path class="st0" d="M522.4,745.9c-0.7-1.6-1.3-3.3-1.8-5.1c-0.5-1.8-0.9-3.6-1.1-5.5c-2,3.5-4.6,6.3-7.8,8.6s-7.1,3.4-11.6,3.4
		c-7.5,0-13.2-1.9-17.3-5.8c-4-3.8-6.1-9.1-6.1-15.7c0-7,2.7-12.4,8.1-16.2c5.4-3.8,13.2-5.8,23.5-5.8h10.7v-5.7
		c0-3.4-0.9-6.1-2.7-8c-1.8-1.9-4.5-2.8-8-2.8c-3.1,0-5.5,0.8-7.2,2.3c-1.7,1.5-2.5,3.6-2.5,6.3l-18.6-0.1l-0.1-0.4
		c-0.3-6,2.3-11.2,7.8-15.6c5.5-4.4,12.8-6.6,21.8-6.6c8.5,0,15.4,2.2,20.7,6.5c5.3,4.3,8,10.5,8,18.5v29.4c0,3.3,0.3,6.5,0.8,9.4
		c0.5,2.9,1.3,5.9,2.4,8.8H522.4z M504.8,733c3.4,0,6.4-0.8,9-2.5c2.6-1.7,4.4-3.6,5.3-5.8v-10.1h-10.7c-4.1,0-7.2,1-9.3,3.1
		c-2.1,2-3.2,4.5-3.2,7.4c0,2.4,0.8,4.3,2.4,5.7C499.9,732.3,502.1,733,504.8,733z"/>
	<path class="st0" d="M570.8,745.9h-19.2V643.1h19.2V745.9z"/>
</g>
<path id="XMLID_2_" class="st0" d="M753.3,559.4c-8.4,18.3-12.7,44.5-12.7,78.8v38.4c0,28.3-3.4,50.5-10.5,66.4
	c-13,29.2-37.6,45.4-74.6,48.6v39.1c57.4-4.8,94.2-19.7,112.8-44.8c18.6-25.1,27.8-59.1,27.8-102V628c0-26,3.5-46,11.3-59.9
	c13.9-25.1,42.4-40.1,81.2-44.8v-19.7v-19.7c-38.9-4.8-67.3-19.7-81.2-44.8c-7.8-13.9-11.3-33.9-11.3-59.9v-55.8
	c0-42.9-9.2-76.9-27.8-102c-18.6-25.1-55.4-40-112.8-44.8v39.1c37,3.2,61.6,19.4,74.6,48.6c7.1,16,10.5,38.1,10.5,66.4v38.4
	c0,34.2,4.3,60.5,12.7,78.8c15.3,33.1,45,51.7,89.1,55.8C798.3,507.6,768.6,526.3,753.3,559.4z"/>
<circle id="XMLID_1_" class="st0" cx="638.7" cy="276.5" r="23.7"/>
</svg>
